<?xml version="1.0" standalone="no"?>
<!DOCTYPE svg PUBLIC "-//W3C//DTD SVG 20010904//EN"
 "http://www.w3.org/TR/2001/REC-SVG-20010904/DTD/svg10.dtd">
<svg version="1.0" xmlns="http://www.w3.org/2000/svg"
 width="319.000000pt" height="319.000000pt" viewBox="0 0 319.000000 319.000000"
 preserveAspectRatio="xMidYMid meet">
<metadata>
Created by potrace 1.11, written by Peter Selinger 2001-2013
</metadata>
<g transform="translate(0.000000,319.000000) scale(0.100000,-0.100000)"
fill="#000000" stroke="none">
<path d="M1459 3185 c-2 -2 -35 -6 -73 -10 -38 -3 -72 -8 -76 -10 -4 -3 -25
-7 -46 -10 -35 -5 -77 -16 -124 -31 -8 -3 -16 -5 -17 -5 -7 2 -127 -46 -191
-75 -41 -19 -78 -34 -83 -34 -5 0 -9 -4 -9 -10 0 -5 -6 -10 -12 -10 -12 0
-165 -95 -178 -110 -3 -3 -35 -29 -72 -58 -110 -87 -305 -310 -341 -392 -7
-14 -14 -27 -18 -30 -12 -11 -126 -255 -135 -290 -2 -8 -13 -46 -24 -85 -21
-71 -23 -82 -34 -145 -3 -19 -9 -48 -12 -65 -4 -16 -7 -107 -9 -201 -2 -155 2
-198 29 -344 20 -102 58 -222 104 -320 43 -92 38 -81 47 -107 4 -13 11 -23 15
-23 4 0 12 -12 19 -27 12 -27 77 -129 96 -150 5 -6 21 -26 35 -45 75 -100 277
-280 400 -356 41 -25 212 -112 255 -129 109 -44 282 -88 393 -100 137 -16 379
-8 497 16 122 25 255 66 337 105 30 14 58 26 61 26 14 0 186 107 257 159 79
58 232 206 292 281 70 89 101 138 179 280 54 98 109 263 140 421 19 93 23 147
23 289 -1 227 -16 332 -74 499 -17 47 -32 93 -34 101 -7 26 -71 155 -78 158
-5 2 -8 9 -8 15 0 7 -16 36 -35 65 -20 28 -32 52 -28 52 5 0 3 4 -3 8 -7 4
-33 36 -60 72 -119 163 -386 387 -549 459 -11 5 -49 22 -85 38 -99 45 -272 97
-365 109 -27 3 -54 9 -59 12 -11 6 -341 13 -347 7z"/>
</g>
</svg>
